<?xml version="1.0" encoding="UTF-8" standalone="no"?><!DOCTYPE svg PUBLIC "-//W3C//DTD SVG 1.1//EN" "http://www.w3.org/Graphics/SVG/1.1/DTD/svg11.dtd"><svg width="100%" height="100%" viewBox="0 0 438 507" version="1.1" xmlns="http://www.w3.org/2000/svg" xmlns:xlink="http://www.w3.org/1999/xlink" xml:space="preserve" xmlns:serif="http://www.serif.com/" style="fill-rule:evenodd;clip-rule:evenodd;stroke-linejoin:round;stroke-miterlimit:2;"><path d="M60.227,268.215l-13.039,-52.168c-2.281,-9.125 -3.438,-18.496 -3.438,-27.879l0,-3.246c0,-8.242 0.91,-16.273 2.575,-24.035c-5.243,-4.742 -9.836,-10.012 -13.719,-15.723c-4.161,17.562 -6.356,36.305 -6.356,56.078c0,27.16 -6.703,41.633 -13.176,55.633c-6.723,14.523 -13.074,28.234 -13.074,58.117c0,27.109 8.996,44.801 27.062,53.961c-0.496,-3.367 -0.812,-6.762 -0.812,-10.211c-0,-52.035 23.766,-80.641 33.977,-90.527l-0,0Z" style="fill-rule:nonzero;"/><path d="M69.997,96.245c-0,4.438 0.937,8.734 2.598,12.793c15.297,-17.324 35.684,-29.977 58.828,-35.641c-6.52,-7.574 -16.047,-12.152 -26.426,-12.152c-19.301,-0 -35,15.699 -35,35l-0,-0Z" style="fill-rule:nonzero;"/><path d="M273.927,437.355c-10.035,21.211 -31.375,35.141 -55.176,35.141c-23.801,0 -45.141,-13.93 -55.176,-35.141c-22.801,-0.988 -42.375,-14.473 -52.062,-33.793c-4.317,7.711 -6.512,16.129 -6.512,25.184c0,26.766 68.531,61.602 113.75,78.199c45.219,-16.598 113.75,-51.434 113.75,-78.199c0,-8.984 -2.379,-17.273 -6.633,-24.93c-9.73,19.191 -29.234,32.559 -51.941,33.539l-0,0Z" style="fill-rule:nonzero;"/><path d="M61.127,124.465c-5.567,-8.504 -8.629,-18.094 -8.629,-28.219c-0,-28.953 23.547,-52.5 52.5,-52.5c19.117,-0 36.34,10.309 45.578,26.66c2.687,-0.191 5.363,-0.41 8.102,-0.41c3.824,-0 7.64,0.289 11.438,0.672c-10.324,-26.352 -35.961,-44.422 -65.117,-44.422c-38.598,-0 -70,31.402 -70,70c-0,17.035 6.187,33.082 17.168,45.711c2.476,-6.125 5.503,-11.945 8.96,-17.492l-0,0Z" style="fill-rule:nonzero;"/><path d="M306.067,73.397c23.152,5.66 43.539,18.312 58.828,35.641c1.66,-4.059 2.598,-8.356 2.598,-12.793c-0,-19.301 -15.7,-35 -35,-35c-10.38,-0 -19.906,4.578 -26.426,12.152l-0,-0Z" style="fill-rule:nonzero;"/><path d="M178.047,343.165l20.781,31.176c4.441,6.668 11.898,10.656 19.922,10.656c8.024,0 15.48,-3.988 19.922,-10.668l20.781,-31.176c1.996,-2.973 3.047,-6.457 3.047,-10.043c-0,-9.992 -8.129,-18.113 -18.113,-18.113l-51.273,0c-9.985,0 -18.113,8.129 -18.113,18.113c-0,3.586 1.051,7.07 3.047,10.055l-0.001,0Z" style="fill-rule:nonzero;"/><path d="M267.377,70.667c3.797,-0.383 7.613,-0.672 11.426,-0.672c2.738,0 5.418,0.219 8.109,0.41c9.242,-16.352 26.465,-26.66 45.582,-26.66c28.953,0 52.5,23.547 52.5,52.5c0,10.125 -3.062,19.715 -8.629,28.219c3.45,5.547 6.477,11.367 8.961,17.484c10.98,-12.621 17.168,-28.668 17.168,-45.703c0,-38.598 -31.402,-70 -70,-70c-29.156,0 -54.793,18.07 -65.117,44.422l-0,0Z" style="fill-rule:nonzero;"/><path d="M189.637,74.445c7.035,1.969 13.922,4.426 20.449,7.691l8.66,4.332l8.664,-4.332c6.527,-3.265 13.414,-5.722 20.449,-7.691c6.738,-26.277 25.141,-47.355 48.973,-58.031c-24.789,-10.613 -51.828,-16.414 -78.086,-16.414c-26.258,-0 -53.305,5.793 -78.086,16.406c23.836,10.684 42.227,31.754 48.977,58.039l-0,-0Z" style="fill-rule:nonzero;"/><path d="M341.247,195.245l-0,-3.633c-0,-38.113 -31.012,-69.113 -69.117,-69.113c-10.676,0 -21.359,2.528 -30.906,7.297l-22.477,11.234l-22.469,-11.234c-9.547,-4.769 -20.238,-7.297 -30.914,-7.297c-38.105,0 -69.117,31 -69.117,69.117l-0,3.633c-0,18.461 7.183,35.812 20.238,48.867l50.496,50.496c1.515,-24.93 5.398,-47.117 9.066,-67.113l-18.551,0c-24.125,0 -43.75,-19.625 -43.75,-43.75l0,-26.25l40.285,0c12.863,0 25.008,5.617 33.336,15.418c8.34,9.828 11.926,22.766 9.836,35.508c-1.129,6.914 -2.414,13.957 -3.746,21.176c-3.945,21.559 -7.961,43.785 -9.25,69.16c2.863,-0.738 5.813,-1.262 8.902,-1.262l51.266,0c3.098,0 6.047,0.524 8.907,1.27c-1.286,-25.383 -5.301,-47.602 -9.25,-69.16c-1.321,-7.227 -2.618,-14.262 -3.754,-21.184c-2.082,-12.738 1.504,-25.68 9.843,-35.5c8.321,-9.801 20.477,-15.418 33.336,-15.418l40.289,-0l0,26.25c0,24.125 -19.625,43.75 -43.75,43.75l-18.551,-0c3.668,19.992 7.551,42.191 9.067,67.113l50.496,-50.496c13.055,-13.062 20.238,-30.414 20.238,-48.879l0.001,0Z" style="fill-rule:nonzero;"/><path d="M362.207,278.215l-4.559,-3.492l15.688,-62.922c1.926,-7.731 2.906,-15.688 2.906,-23.633l0,-3.246c0,-53.723 -43.707,-97.43 -97.43,-97.43c-15.051,-0 -30.117,3.562 -43.574,10.289l-16.496,8.242l-16.492,-8.242c-13.461,-6.727 -28.527,-10.289 -43.566,-10.289c-53.734,-0 -97.441,43.707 -97.441,97.43l0,3.246c0,7.945 0.981,15.898 2.915,23.633l15.734,62.949l-4.649,3.492c-1.25,0.953 -31.5,24.805 -31.5,80.5c0,28.367 21.777,48.711 44.223,62.168c1.582,-14.184 7.508,-27.309 17.344,-38.543c-0.211,-2.019 -0.316,-4.059 -0.316,-6.125c-0,-32.508 25.488,-59.113 57.523,-61.059c0.035,-0.063 0.07,-0.133 0.105,-0.191l-58.504,-58.504c-16.363,-16.363 -25.367,-38.105 -25.367,-61.25l0,-3.633c-0.008,-47.754 38.844,-86.613 86.609,-86.613c13.371,-0 26.773,3.16 38.734,9.144l14.648,7.324l14.648,-7.324c11.961,-5.984 25.355,-9.144 38.734,-9.144c47.766,-0 86.617,38.859 86.617,86.617l0,3.633c0,23.137 -9.004,44.887 -25.367,61.25l-58.512,58.5c0.035,0.062 0.07,0.132 0.106,0.191c32.035,1.945 57.523,28.551 57.523,61.059c-0,2.066 -0.106,4.113 -0.305,6.125c9.836,11.234 15.75,24.367 17.332,38.535c22.445,-13.449 44.223,-33.793 44.223,-62.16c-0,-55.695 -30.25,-79.547 -31.535,-80.527l0.001,0Z" style="fill-rule:nonzero;"/><path d="M122.497,376.245c-0,24.125 19.625,43.75 43.75,43.75c15.227,0 29.023,-8.023 36.898,-20.57c-7.586,-3.078 -14.203,-8.356 -18.891,-15.383l-20.781,-31.176c-3.852,-5.773 -5.891,-12.477 -5.957,-19.406c-20.082,4.144 -35.02,21.75 -35.02,42.785l0.001,-0Z" style="fill-rule:nonzero;"/><path d="M424.427,256.875c-6.473,-14 -13.176,-28.473 -13.176,-55.633c-0,-19.773 -2.196,-38.516 -6.352,-56.078c-3.887,5.723 -8.48,10.98 -13.719,15.723c1.66,7.762 2.57,15.793 2.57,24.035l0,3.246c0,9.379 -1.156,18.762 -3.429,27.879l-13.047,52.176c10.211,9.879 33.977,38.484 33.977,90.52c-0,3.449 -0.317,6.844 -0.813,10.211c18.066,-9.16 27.062,-26.852 27.062,-53.961c0,-29.883 -6.351,-43.594 -13.074,-58.117l0.001,-0.001Z" style="fill-rule:nonzero;"/><path d="M174.027,184.245c-4.996,-5.883 -12.285,-9.25 -19.992,-9.25l-22.785,0l-0,8.75c-0,14.473 11.777,26.25 26.25,26.25l21.691,0c0.246,-1.481 0.5,-2.949 0.734,-4.41c1.27,-7.664 -0.883,-15.445 -5.898,-21.34l-0,0Z" style="fill-rule:nonzero;"/><path d="M279.997,209.995c14.473,0 26.25,-11.777 26.25,-26.25l-0,-8.75l-22.785,0c-7.719,0 -15.008,3.367 -19.992,9.25c-5.016,5.906 -7.168,13.676 -5.914,21.34c0.246,1.461 0.5,2.93 0.742,4.41l21.699,0Z" style="fill-rule:nonzero;"/><path d="M218.747,454.995c14.926,0 28.465,-7.699 36.418,-19.82c-15.227,-4.172 -28.297,-14.086 -36.418,-27.746c-8.121,13.668 -21.203,23.574 -36.418,27.746c7.953,12.121 21.492,19.82 36.418,19.82Z" style="fill-rule:nonzero;"/><path d="M314.997,376.245c-0,-21.133 -15.066,-38.805 -35.016,-42.867c-0.051,6.965 -2.102,13.695 -5.957,19.484l-20.781,31.176c-4.692,7.035 -11.305,12.301 -18.891,15.383c7.879,12.551 21.668,20.574 36.895,20.574c24.125,0 43.75,-19.625 43.75,-43.75Z" style="fill-rule:nonzero;"/></svg>